<?xml version="1.0" standalone="no"?>
<!DOCTYPE svg PUBLIC "-//W3C//DTD SVG 20010904//EN"
 "http://www.w3.org/TR/2001/REC-SVG-20010904/DTD/svg10.dtd">
<svg version="1.0" xmlns="http://www.w3.org/2000/svg"
 width="700.000000pt" height="700.000000pt" viewBox="0 0 700.000000 700.000000"
 preserveAspectRatio="xMidYMid meet">
<metadata>
Created by potrace 1.11, written by Peter Selinger 2001-2013
</metadata>
<g transform="translate(0.000000,700.000000) scale(0.100000,-0.100000)"
fill="#000000" stroke="none">
<path d="M2170 6991 c0 -5 28 -12 63 -16 34 -4 71 -9 82 -11 11 -3 36 -7 55
-10 162 -26 431 -87 595 -136 39 -11 75 -21 80 -23 6 -1 17 -5 25 -8 8 -3 69
-23 135 -45 122 -41 352 -129 370 -141 6 -4 46 -22 90 -41 154 -65 438 -215
650 -343 144 -88 535 -366 566 -403 8 -10 9 -21 0 -41 -20 -52 -32 -128 -33
-208 -1 -297 217 -553 512 -601 92 -15 213 -4 292 26 53 20 55 19 108 -50 14
-18 30 -37 35 -44 6 -6 44 -56 85 -111 41 -55 77 -102 80 -105 3 -3 10 -12 15
-21 20 -31 150 -224 155 -229 3 -3 10 -14 16 -25 27 -50 39 -70 44 -75 3 -3
27 -41 52 -85 26 -44 55 -96 67 -115 11 -19 58 -109 104 -200 215 -423 382
-902 472 -1350 3 -14 10 -46 16 -72 6 -26 8 -51 6 -56 -3 -4 -1 -14 4 -22 10
-14 5 260 -6 380 -10 110 -16 167 -20 200 -3 19 -7 53 -10 75 -3 22 -10 65
-15 95 -5 30 -12 69 -14 85 -3 17 -7 41 -10 55 -3 14 -9 41 -13 60 -9 46 -10
50 -12 53 -2 1 -4 13 -6 27 -5 37 -60 245 -86 325 -13 39 -23 72 -24 75 -4 21
-76 220 -97 270 -6 14 -14 34 -18 45 -8 20 -31 73 -65 150 -19 44 -106 219
-151 305 -16 30 -32 57 -36 58 -5 2 -8 8 -8 12 0 12 -91 163 -103 171 -5 3 -8
9 -8 13 2 9 -120 190 -131 194 -4 2 -8 8 -8 13 0 8 -45 71 -86 122 -17 21 -17
26 0 46 17 20 62 135 71 181 21 112 7 279 -31 351 -8 16 -14 31 -14 34 2 10
-69 120 -97 151 -191 210 -505 263 -752 126 l-44 -24 -56 40 c-106 77 -311
212 -321 212 -5 0 -10 5 -10 10 0 6 -4 10 -9 10 -8 0 -54 26 -134 74 -37 22
-300 154 -367 184 -25 11 -92 39 -150 62 -58 22 -114 45 -125 50 -11 5 -63 23
-115 40 -52 16 -115 37 -140 45 -49 15 -228 64 -261 70 -11 2 -29 7 -39 10
-10 3 -27 7 -37 9 -10 2 -70 14 -133 26 -63 12 -131 23 -150 26 -48 6 -102 14
-125 18 -18 3 -58 8 -220 23 -91 8 -555 12 -555 4z"/>
<path d="M2370 5820 l-65 -5 -1 -210 c0 -115 1 -215 3 -221 2 -6 46 -11 111
-13 119 -3 176 -6 272 -15 65 -7 85 -10 150 -21 19 -4 44 -8 55 -10 33 -5 90
-16 166 -34 57 -13 264 -76 304 -92 17 -7 35 -13 41 -14 26 -6 238 -102 309
-140 126 -68 163 -89 245 -143 74 -49 223 -157 256 -187 6 -5 35 -30 65 -55
85 -71 258 -248 329 -335 35 -44 67 -82 70 -85 4 -3 36 -48 73 -100 37 -52 71
-99 75 -105 7 -9 21 -32 100 -170 20 -36 110 -220 131 -270 5 -11 16 -37 26
-58 16 -37 52 -136 61 -167 2 -8 15 -53 30 -100 23 -77 59 -226 70 -290 2 -14
6 -34 9 -45 2 -11 7 -46 10 -78 4 -32 8 -68 11 -80 21 -101 21 -537 0 -676 -3
-20 -8 -54 -11 -76 -3 -23 -8 -52 -10 -65 -3 -14 -8 -43 -10 -64 -3 -21 -8
-42 -11 -47 -2 -4 -7 -27 -10 -51 -4 -24 -12 -61 -19 -83 -11 -35 -22 -75 -30
-110 -5 -20 -68 -201 -80 -230 -7 -16 -23 -55 -35 -85 -20 -49 -129 -266 -170
-338 -44 -76 -189 -287 -227 -327 -10 -11 -36 -43 -58 -70 -22 -28 -79 -91
-127 -141 -49 -50 -88 -94 -88 -99 0 -4 69 -77 154 -162 l155 -154 68 69 c207
211 398 460 522 682 23 41 46 82 51 90 62 105 184 390 240 562 33 102 87 309
95 362 5 37 14 85 20 106 2 8 7 42 10 75 4 33 8 67 10 75 28 106 34 520 11
765 -16 169 -61 404 -107 565 -7 25 -13 47 -14 50 -33 157 -226 597 -338 773
-20 31 -37 59 -37 61 0 18 -189 275 -294 401 -86 102 -326 337 -436 426 -117
94 -274 209 -286 209 -4 0 -17 8 -28 18 -53 47 -485 273 -551 288 -5 1 -44 15
-85 32 -184 72 -483 150 -685 178 -27 3 -61 8 -75 10 -67 9 -183 17 -260 18
-47 1 -87 3 -90 6 -3 3 -34 3 -70 0z"/>
<path d="M2137 5234 c-1 -1 -53 -4 -115 -8 -62 -3 -116 -7 -120 -10 -4 -2 -34
-7 -67 -10 -33 -4 -67 -9 -75 -11 -8 -2 -31 -6 -50 -9 -104 -16 -331 -80 -475
-133 -96 -36 -340 -148 -355 -163 -3 -3 -16 -11 -30 -18 -80 -39 -341 -215
-396 -266 -7 -6 -31 -27 -55 -46 -23 -19 -86 -76 -138 -126 l-95 -91 25 -24
c14 -13 72 -66 129 -118 58 -52 112 -101 120 -110 56 -57 50 -58 131 20 41 39
115 104 165 144 115 93 344 246 344 230 0 -3 10 3 22 15 12 11 25 20 30 20 4
0 42 17 85 38 75 36 265 111 294 115 8 2 19 5 24 9 21 13 246 65 320 73 17 2
41 6 54 9 86 19 432 26 551 12 106 -13 125 -15 150 -19 14 -3 45 -8 69 -11 58
-10 216 -51 300 -78 36 -12 68 -23 71 -23 3 -1 16 -6 30 -12 14 -6 50 -21 80
-33 77 -31 245 -116 308 -156 29 -19 55 -34 58 -34 2 0 10 -5 17 -10 7 -6 50
-38 97 -72 131 -94 303 -250 400 -364 84 -98 210 -265 210 -278 0 -2 15 -27
33 -55 49 -74 187 -355 187 -381 0 -6 4 -18 9 -28 19 -37 31 -70 50 -137 23
-80 52 -200 56 -232 2 -11 6 -29 9 -40 3 -10 8 -43 11 -73 4 -30 9 -71 11 -90
3 -19 7 -84 10 -145 4 -60 8 -112 10 -114 2 -3 263 -4 411 -1 l33 0 -5 118
c-3 64 -7 135 -9 157 -6 63 -18 158 -23 180 -2 11 -6 34 -9 50 -11 62 -12 70
-18 85 -3 8 -7 29 -10 45 -7 43 -42 170 -66 240 -12 33 -23 69 -26 80 -3 11
-10 29 -14 40 -5 11 -23 56 -41 100 -32 80 -127 269 -167 335 -12 19 -25 42
-29 50 -8 16 -78 120 -132 195 -76 107 -169 215 -280 326 -109 108 -291 269
-306 269 -3 0 -13 7 -22 16 -64 63 -371 243 -543 317 -36 16 -74 32 -85 37
-11 6 -54 21 -95 35 -41 15 -82 29 -90 32 -8 3 -19 7 -25 8 -5 2 -41 12 -80
23 -38 11 -86 24 -105 28 -19 4 -39 9 -45 10 -9 3 -111 23 -195 38 -25 5 -106
13 -215 22 -59 5 -304 11 -308 8z"/>
<path d="M2107 4623 c-1 -1 -44 -4 -95 -8 -51 -3 -103 -8 -115 -11 -12 -3 -35
-7 -52 -9 -41 -5 -86 -13 -110 -19 -89 -20 -118 -28 -177 -45 -150 -43 -417
-155 -433 -181 -3 -5 -15 -10 -26 -10 -10 0 -19 -4 -19 -10 0 -5 -5 -10 -11
-10 -29 0 -255 -160 -378 -269 -140 -122 -368 -383 -404 -461 -6 -14 -14 -27
-17 -30 -17 -15 -137 -232 -140 -252 0 -5 -10 -24 -21 -44 -24 -44 -30 -40
110 -95 57 -22 111 -45 120 -49 9 -5 49 -22 89 -38 l74 -29 57 111 c50 98 112
201 148 246 174 218 269 312 443 435 73 51 218 135 235 135 7 0 15 4 17 8 7
17 264 114 335 127 18 3 43 9 57 15 14 5 47 12 73 16 27 3 57 8 68 10 46 10
138 16 254 18 241 4 443 -30 661 -111 146 -54 365 -169 443 -233 7 -5 39 -31
72 -57 93 -74 144 -121 237 -224 50 -55 90 -105 106 -131 9 -16 20 -28 24 -28
4 0 8 -4 8 -10 0 -8 27 -53 65 -107 9 -13 16 -26 17 -30 0 -5 11 -24 23 -43
11 -19 29 -53 39 -75 9 -22 22 -49 28 -59 29 -54 104 -290 114 -361 2 -16 7
-37 10 -45 3 -8 8 -35 11 -60 3 -25 8 -71 12 -104 9 -67 6 -323 -4 -406 -11
-88 -11 -95 5 -96 8 0 29 -3 45 -7 17 -4 41 -9 55 -11 14 -3 36 -8 50 -11 14
-3 34 -7 45 -9 11 -2 34 -6 50 -10 60 -13 153 -28 169 -27 5 0 11 15 13 33 1
18 5 47 8 63 25 142 24 422 -1 615 -36 280 -150 616 -284 837 -22 36 -40 67
-40 69 0 12 -158 225 -217 293 -83 95 -220 227 -297 286 -22 17 -60 46 -85 65
-102 78 -250 166 -384 229 -49 22 -90 41 -92 41 -1 0 -20 8 -41 17 -22 9 -41
17 -44 18 -3 0 -35 11 -72 23 -37 12 -75 24 -85 25 -10 2 -25 7 -33 10 -22 10
-177 44 -233 52 -27 3 -58 8 -70 11 -54 10 -403 25 -410 17z"/>
</g>
</svg>
