<?xml version="1.0" encoding="UTF-8" standalone="no"?>
<!-- Created with Inkscape (http://www.inkscape.org/) -->

<svg
   xmlns:dc="http://purl.org/dc/elements/1.1/"
   xmlns:cc="http://creativecommons.org/ns#"
   xmlns:rdf="http://www.w3.org/1999/02/22-rdf-syntax-ns#"
   xmlns:svg="http://www.w3.org/2000/svg"
   xmlns="http://www.w3.org/2000/svg"
   xmlns:sodipodi="http://sodipodi.sourceforge.net/DTD/sodipodi-0.dtd"
   xmlns:inkscape="http://www.inkscape.org/namespaces/inkscape"
   width="16.404167mm"
   height="16.404167mm"
   viewBox="0 0 16.404167 16.404167"
   version="1.1"
   id="svg63"
   inkscape:version="0.92.3 (2405546, 2018-03-11)"
   sodipodi:docname="icone-colheita.svg">
  <defs
     id="defs57" />
  <sodipodi:namedview
     id="base"
     pagecolor="#ffffff"
     bordercolor="#666666"
     borderopacity="1.0"
     inkscape:pageopacity="0.0"
     inkscape:pageshadow="2"
     inkscape:zoom="0.35"
     inkscape:cx="188.14286"
     inkscape:cy="-143.28571"
     inkscape:document-units="mm"
     inkscape:current-layer="layer1"
     showgrid="false"
     inkscape:window-width="1880"
     inkscape:window-height="1055"
     inkscape:window-x="40"
     inkscape:window-y="0"
     inkscape:window-maximized="1" />
  <metadata
     id="metadata60">
    <rdf:RDF>
      <cc:Work
         rdf:about="">
        <dc:format>image/svg+xml</dc:format>
        <dc:type
           rdf:resource="http://purl.org/dc/dcmitype/StillImage" />
        <dc:title></dc:title>
      </cc:Work>
    </rdf:RDF>
  </metadata>
  <g
     inkscape:label="Camada 1"
     inkscape:groupmode="layer"
     id="layer1"
     transform="translate(-56.053869,-94.518155)">
    <g
       id="g26"
       transform="matrix(0.26458333,0,0,0.26458333,49.439286,87.903572)">
      <g
         style="fill:none;stroke:#8f8c87;stroke-width:2"
         transform="translate(25,25)"
         data-name="Elipse 270"
         id="Elipse_270-3">
        <circle
           style="stroke:none"
           id="circle21"
           r="31"
           cy="31"
           cx="31" />
        <circle
           style="fill:none"
           id="circle23"
           r="30"
           cy="31"
           cx="31" />
      </g>
    </g>
    <g
       id="Grupo_527"
       data-name="Grupo 527"
       transform="matrix(0.26458333,0,0,0.26458333,59.554307,97.183038)">
      <path
         style="fill:#8f8c87;stroke:#8f8c87;stroke-width:1"
         inkscape:connector-curvature="0"
         id="Caminho_353"
         data-name="Caminho 353"
         d="m 34.531,35.084 a 16.638,16.638 0 0 1 -1.129,-9.1 c 0.682,-5.79 -1.092,-9.8 -2.383,-12.725 a 10.566,10.566 0 0 1 -1.21,-3.752 c 0,-0.4 0.02,-0.8 0.049,-1.2 A 7.577,7.577 0 0 1 30.65,8.222 c 0.235,0 0.56,-0.114 0.784,-0.658 A 5.24,5.24 0 0 0 30.886,3.228 C 30.866,3.208 30.849,3.183 30.829,3.163 A 0.546,0.546 0 0 0 30.772,3.118 2.169,2.169 0 0 0 29.359,2.862 c 0,-0.012 0,-0.02 0,-0.032 a 1.8,1.8 0 0 0 -1.8,-1.8 1.735,1.735 0 0 0 -0.682,0.138 1.781,1.781 0 0 0 -2.915,0.235 1.784,1.784 0 0 0 -3.062,-0.027 1.767,1.767 0 0 0 -2.087,0 A 1.794,1.794 0 0 0 17.291,0.52 1.735,1.735 0 0 0 16.609,0.658 1.785,1.785 0 0 0 13.45,1.6 1.783,1.783 0 0 0 10.462,2.225 1.781,1.781 0 0 0 7.782,2.091 1.794,1.794 0 0 0 4.729,3.025 1.386,1.386 0 0 0 4.4,3.09 0.429,0.429 0 0 0 4.323,3.114 1.008,1.008 0 0 0 4.136,3.252 1.879,1.879 0 0 0 3.661,4.352 c -0.223,1.376 0.118,3.833 0.6,4.312 A 2.283,2.283 0 0 0 5.203,8.981 C 5.211,9.156 5.215,9.334 5.215,9.509 A 10.649,10.649 0 0 1 4,13.256 C 2.7,16.188 0.933,20.2 1.615,25.985 a 16.646,16.646 0 0 1 -1.129,9.1 c -0.512,1.271 -0.853,2.111 0.2,2.9 2,1.5 10.163,2.558 16.529,2.619 H 17.8 v 0 c 6.366,-0.061 14.531,-1.121 16.529,-2.619 1.05,-0.794 0.713,-1.63 0.202,-2.901 z M 27.166,1.612 a 1.3,1.3 0 0 1 0.4,-0.069 1.283,1.283 0 0 1 1.283,1.283 0.4,0.4 0 0 1 -0.008,0.069 c -0.483,0.049 -1.039,0.134 -1.689,0.252 q -0.372,0.067 -0.78,0.146 c 0,-0.008 -0.008,-0.02 -0.012,-0.028 A 1.313,1.313 0 0 1 26.279,2.827 1.285,1.285 0 0 1 26.709,1.873 1.386,1.386 0 0 1 27.166,1.612 Z M 25.509,1.027 a 1.284,1.284 0 0 1 0.934,0.406 1.8,1.8 0 0 0 -0.564,0.788 1.783,1.783 0 0 0 -1.393,-0.678 1.278,1.278 0 0 1 1.023,-0.516 z m -1.8,1.291 v 0 A 1.275,1.275 0 0 1 24.2,2.087 c 0.016,0 0.032,0 0.045,-0.008 a 1.492,1.492 0 0 1 0.231,-0.024 1.283,1.283 0 0 1 1.283,1.283 0.447,0.447 0 0 1 -0.008,0.073 C 25.54,3.452 25.325,3.496 25.101,3.541 24.52,3.659 23.924,3.776 23.319,3.89 A 0.177,0.177 0 0 1 23.303,3.862 1.286,1.286 0 0 1 23.185,3.334 V 3.325 A 1.321,1.321 0 0 1 23.71,2.318 Z M 22.427,1.027 A 1.287,1.287 0 0 1 23.596,1.786 1.8,1.8 0 0 0 22.7,3.139 1.774,1.774 0 0 0 21.628,2.595 1.767,1.767 0 0 0 21.279,1.742 1.28,1.28 0 0 1 22.427,1.027 Z M 21.4,3.082 v 0 a 1.017,1.017 0 0 1 0.223,0.024 1.269,1.269 0 0 1 0.792,0.491 1.19,1.19 0 0 1 0.207,0.426 c -0.836,0.15 -1.681,0.292 -2.509,0.4 0,-0.016 0,-0.037 0,-0.053 A 1.372,1.372 0 0 1 20.15,4.078 1.289,1.289 0 0 1 20.869,3.205 1.107,1.107 0 0 1 21.1,3.128 1.049,1.049 0 0 1 21.4,3.082 Z M 19.021,1.86 a 1.285,1.285 0 0 1 2.1,0.739 1.759,1.759 0 0 0 -0.439,0.126 1.8,1.8 0 0 0 -0.966,1.039 1.825,1.825 0 0 0 -0.633,-0.5 A 2.163,2.163 0 0 0 19,2.826 1.809,1.809 0 0 0 18.712,2.254 1.266,1.266 0 0 1 19.021,1.86 Z m 0.508,2.627 a 21.676,21.676 0 0 1 -2.241,0.138 c -0.073,0 -0.15,0 -0.227,0 V 4.6 a 1.248,1.248 0 0 1 0.231,-0.491 1.28,1.28 0 0 1 0.95,-0.508 c 0.024,0 0.049,-0.008 0.073,-0.008 a 1.147,1.147 0 0 1 0.2,0.02 0.03,0.03 0 0 1 0.02,0 1.253,1.253 0 0 1 0.475,0.187 1.268,1.268 0 0 1 0.518,0.686 z M 18.546,3.107 A 2.237,2.237 0 0 0 18.315,3.083 h -0.008 a 1.343,1.343 0 0 0 -0.223,0.024 1.78,1.78 0 0 0 -1,0.471 1.736,1.736 0 0 0 -0.313,0.394 1.67,1.67 0 0 0 -0.629,-0.629 L 16,3.268 a 1.258,1.258 0 0 1 0.1,-0.443 1.28,1.28 0 0 1 0.195,-0.309 1.255,1.255 0 0 1 0.694,-0.426 1.334,1.334 0 0 1 0.288,-0.037 1.278,1.278 0 0 1 0.836,0.317 1.3,1.3 0 0 1 0.341,0.455 1.118,1.118 0 0 1 0.092,0.281 z M 16.483,4.6 c -0.8,-0.028 -1.616,-0.1 -2.44,-0.195 a 1.284,1.284 0 0 1 1.19,-0.812 1.145,1.145 0 0 1 0.288,0.037 1.274,1.274 0 0 1 0.4,0.166 1.223,1.223 0 0 1 0.386,0.378 1.374,1.374 0 0 1 0.176,0.426 z m 0.4,-3.508 a 1.3,1.3 0 0 1 0.4,-0.069 1.28,1.28 0 0 1 1.145,0.715 c -0.037,0.045 -0.069,0.093 -0.1,0.142 a 1.792,1.792 0 0 0 -1.043,-0.341 1.6,1.6 0 0 0 -0.28,0.028 1.928,1.928 0 0 0 -0.5,0.154 1.718,1.718 0 0 0 -0.479,0.333 1.273,1.273 0 0 1 0.406,-0.7 A 1.349,1.349 0 0 1 16.885,1.1 Z M 15.229,0.516 A 1.284,1.284 0 0 1 16.163,0.922 1.8,1.8 0 0 0 15.578,1.775 1.743,1.743 0 0 0 13.95,1.718 1.289,1.289 0 0 1 15.229,0.516 Z m -1.584,2.115 a 1.3,1.3 0 0 1 0.235,-0.26 1.541,1.541 0 0 1 0.154,-0.118 1.264,1.264 0 0 1 1.454,0.065 1.2,1.2 0 0 1 0.207,0.2 1.587,1.587 0 0 0 -0.126,0.309 1.988,1.988 0 0 0 -0.053,0.223 1.334,1.334 0 0 1 -0.288,0.037 1.808,1.808 0 0 0 -0.914,0.256 1.865,1.865 0 0 0 -0.487,0.422 1.2,1.2 0 0 0 -0.069,-0.166 1.8,1.8 0 0 0 -0.313,-0.459 1.457,1.457 0 0 1 0.2,-0.509 z m -0.219,1.7 C 12.586,4.221 11.749,4.087 10.941,3.949 A 1.247,1.247 0 0 1 11.124,3.6 1.29,1.29 0 0 1 12.147,3.084 1.274,1.274 0 0 1 12.918,3.348 1.344,1.344 0 0 1 13.17,3.6 a 1.231,1.231 0 0 1 0.235,0.512 0.958,0.958 0 0 1 0.021,0.22 z M 12.147,1.543 A 1.28,1.28 0 0 1 13.292,2.258 1.69,1.69 0 0 0 13.012,2.802 1.774,1.774 0 0 0 12.147,2.571 1.8,1.8 0 0 0 10.888,3.087 1.376,1.376 0 0 1 10.86,2.827 1.289,1.289 0 0 1 12.147,1.543 Z M 8.083,2.517 a 1.277,1.277 0 0 1 2.262,0.82 1.3,1.3 0 0 1 -0.1,0.487 C 9.754,3.735 9.275,3.649 8.82,3.564 8.448,3.5 8.1,3.431 7.778,3.374 c 0,-0.012 0,-0.024 0,-0.037 A 1.3,1.3 0 0 1 8.083,2.517 Z M 6.5,2.054 a 1.277,1.277 0 0 1 0.979,0.463 1.754,1.754 0 0 0 -0.2,0.767 C 7.202,3.272 7.121,3.256 7.044,3.243 A 16.907,16.907 0 0 0 5.266,3.012 1.285,1.285 0 0 1 6.5,2.054 Z M 5.172,8.465 A 1.779,1.779 0 0 1 4.619,8.3 7.8,7.8 0 0 1 4.168,4.435 2.335,2.335 0 0 1 4.326,3.863 0.575,0.575 0 0 1 4.553,3.575 0.611,0.611 0 0 1 4.715,3.53 1.509,1.509 0 0 1 4.967,3.514 h 0.041 a 2.16,2.16 0 0 1 0.219,0.012 c 0.52,0.032 1.263,0.146 2.107,0.292 0.195,0.032 0.39,0.069 0.593,0.106 l 0.8,0.146 c 0.382,0.069 0.784,0.146 1.19,0.219 0.313,0.057 0.625,0.114 0.95,0.166 0.8,0.138 1.628,0.268 2.465,0.378 0.2,0.028 0.41,0.057 0.613,0.081 0.857,0.1 1.705,0.175 2.534,0.2 0.195,0.008 0.386,0.012 0.577,0.016 0.077,0 0.154,0 0.227,0 a 21.738,21.738 0 0 0 2.3,-0.142 c 0.219,-0.024 0.439,-0.045 0.662,-0.073 0.8,-0.106 1.612,-0.24 2.42,-0.386 0.345,-0.061 0.686,-0.126 1.027,-0.191 0.516,-0.1 1.023,-0.2 1.519,-0.3 0.126,-0.024 0.252,-0.049 0.378,-0.077 0.374,-0.073 0.743,-0.146 1.1,-0.215 0.727,-0.138 1.413,-0.26 2.006,-0.329 0.134,-0.016 0.264,-0.032 0.39,-0.041 0.065,0 0.126,-0.012 0.187,-0.016 0.6,-0.041 1.035,-0.008 1.2,0.154 a 1.6,1.6 0 0 1 0.231,0.313 5.1,5.1 0 0 1 0.264,3.532 C 30.914,7.489 30.805,7.7 30.654,7.7 a 7.138,7.138 0 0 0 -0.743,0.073 q -0.231,0.03 -0.524,0.073 c -0.418,0.061 -0.914,0.138 -1.5,0.231 A 79.666,79.666 0 0 1 17.3,9.249 100.788,100.788 0 0 1 5.708,8.555 C 5.5,8.526 5.318,8.5 5.172,8.465 Z m 28.852,29.1 C 32.132,38.986 23.824,40.05 17.511,40.082 11.2,40.054 2.89,38.99 1,37.569 0.3,37.045 0.436,36.599 0.968,35.275 A 17.116,17.116 0 0 0 2.129,25.924 C 1.461,20.277 3.2,16.342 4.473,13.468 A 10.825,10.825 0 0 0 5.728,9.509 c 0,-0.146 0,-0.292 -0.008,-0.438 A 101.517,101.517 0 0 0 17.292,9.765 79.769,79.769 0 0 0 27.97,8.591 L 29.342,8.38 c -0.024,0.369 -0.045,0.747 -0.045,1.125 a 10.825,10.825 0 0 0 1.255,3.959 c 1.271,2.875 3.009,6.809 2.347,12.457 a 17.116,17.116 0 0 0 1.161,9.351 c 0.528,1.328 0.662,1.773 -0.037,2.297 z"
         transform="translate(0.002)" />
      <path
         style="fill:#8f8c87;stroke:#8f8c87;stroke-width:1"
         inkscape:connector-curvature="0"
         id="Caminho_354"
         data-name="Caminho 354"
         d="m 37.145,48.6 -0.077,-0.508 c -0.67,0.1 -1.32,0.2 -1.953,0.288 0.15,-1.129 0.374,-2.627 0.706,-4.616 a 11.376,11.376 0 0 0 0.142,-2.355 h 1.145 v -0.516 h -1.181 a 18.429,18.429 0 0 0 -2.262,-6.91 c 0.609,0.069 1.23,0.142 1.868,0.227 L 35.6,33.7 c -0.759,-0.1 -1.5,-0.187 -2.221,-0.264 -0.065,-0.122 -0.13,-0.24 -0.191,-0.357 A 7.478,7.478 0 0 1 32.226,30.87 H 31.71 a 7.033,7.033 0 0 0 1.023,2.452 l 0.024,0.049 A 72.087,72.087 0 0 0 24.518,33 V 31.38 H 24 v 1.632 a 50.475,50.475 0 0 0 -7.8,0.747 c 0.678,-1.762 1.088,-2.785 1.092,-2.8 l -0.475,-0.191 c -0.008,0.016 -0.463,1.161 -1.21,3.106 a 21.113,21.113 0 0 0 -3.273,0.865 l 0.191,0.475 a 19.8,19.8 0 0 1 2.862,-0.775 c -0.337,0.877 -0.719,1.888 -1.141,3.017 a 15.738,15.738 0 0 0 -0.767,3.431 h -1.04 V 41.4 h 0.987 a 46.79,46.79 0 0 0 -0.134,7.276 8.2,8.2 0 0 1 -1.758,-0.564 l -0.244,0.451 a 9.015,9.015 0 0 0 2.038,0.666 22.292,22.292 0 0 0 0.406,3.285 l 0.5,-0.126 a 21.018,21.018 0 0 1 -0.39,-3.045 38.433,38.433 0 0 0 7.641,0.633 q 1.175,0 2.521,-0.049 v 2.521 h 0.516 V 49.91 c 2.777,-0.118 6.086,-0.4 10,-0.934 -0.227,1.811 -0.235,2.412 -0.235,2.448 H 34.8 c 0,-0.008 0.008,-0.629 0.248,-2.521 q 1.013,-0.14 2.097,-0.303 z m -4.1,-14.686 a 18.58,18.58 0 0 1 2.359,6.975 h -10.89 v -7.374 a 72.562,72.562 0 0 1 8.534,0.398 z M 14.733,37.64 c 0.471,-1.259 0.9,-2.371 1.259,-3.317 a 49.181,49.181 0 0 1 8.011,-0.8 v 7.365 H 13.994 A 15.293,15.293 0 0 1 14.733,37.64 Z M 13.8,48.793 a 45.83,45.83 0 0 1 0.13,-7.39 H 24 v 8 a 43.5,43.5 0 0 1 -10.2,-0.61 z m 10.711,0.593 V 41.4 h 10.93 a 10.814,10.814 0 0 1 -0.134,2.27 c -0.345,2.079 -0.577,3.626 -0.727,4.771 -3.943,0.543 -7.273,0.827 -10.066,0.945 z"
         transform="translate(-6.705,-18.277)" />
    </g>
  </g>
</svg>
