<?xml version="1.0" encoding="UTF-8" standalone="no"?>
<!-- Created with Inkscape (http://www.inkscape.org/) -->

<svg
   xmlns:dc="http://purl.org/dc/elements/1.1/"
   xmlns:cc="http://creativecommons.org/ns#"
   xmlns:rdf="http://www.w3.org/1999/02/22-rdf-syntax-ns#"
   xmlns:svg="http://www.w3.org/2000/svg"
   xmlns="http://www.w3.org/2000/svg"
   xmlns:sodipodi="http://sodipodi.sourceforge.net/DTD/sodipodi-0.dtd"
   xmlns:inkscape="http://www.inkscape.org/namespaces/inkscape"
   width="16.404167mm"
   height="16.404167mm"
   viewBox="0 0 16.404167 16.404167"
   version="1.1"
   id="svg70"
   inkscape:version="0.92.3 (2405546, 2018-03-11)"
   sodipodi:docname="icone-caracteristicas-imovel.svg">
  <defs
     id="defs64" />
  <sodipodi:namedview
     id="base"
     pagecolor="#ffffff"
     bordercolor="#666666"
     borderopacity="1.0"
     inkscape:pageopacity="0.0"
     inkscape:pageshadow="2"
     inkscape:zoom="0.35"
     inkscape:cx="156.71429"
     inkscape:cy="-189"
     inkscape:document-units="mm"
     inkscape:current-layer="layer1"
     showgrid="false"
     inkscape:window-width="1880"
     inkscape:window-height="1055"
     inkscape:window-x="40"
     inkscape:window-y="0"
     inkscape:window-maximized="1" />
  <metadata
     id="metadata67">
    <rdf:RDF>
      <cc:Work
         rdf:about="">
        <dc:format>image/svg+xml</dc:format>
        <dc:type
           rdf:resource="http://purl.org/dc/dcmitype/StillImage" />
        <dc:title></dc:title>
      </cc:Work>
    </rdf:RDF>
  </metadata>
  <g
     inkscape:label="Camada 1"
     inkscape:groupmode="layer"
     id="layer1"
     transform="translate(-64.369345,-82.422917)">
    <g
       id="g19"
       transform="matrix(0.26458333,0,0,0.26458333,57.754762,75.808334)">
      <g
         style="fill:none;stroke:#8f8c87;stroke-width:2"
         transform="translate(25,25)"
         data-name="Elipse 270"
         id="Elipse_270-2">
        <circle
           style="stroke:none"
           id="circle14"
           r="31"
           cy="31"
           cx="31" />
        <circle
           style="fill:none"
           id="circle16"
           r="30"
           cy="31"
           cx="31" />
      </g>
    </g>
    <g
       style="fill:none"
       id="Caminho_347"
       data-name="Caminho 347"
       transform="matrix(0.26458333,0,0,0.26458333,68.125106,89.794738)">
      <path
         style="stroke:none"
         inkscape:connector-curvature="0"
         d="m 0,2.395 35.459,-6.31 v 23.15 L 0,24.96 Z"
         id="path44" />
      <path
         style="fill:#8f8c87;stroke:none"
         inkscape:connector-curvature="0"
         d="M 32.959282,-0.930439 2.5000038,4.4893703 V 22.024212 L 32.959282,17.106709 V -0.930439 m 2.5,-2.984108 V 19.235462 L 3.8146973e-6,24.960192 V 2.3949432 Z"
         id="path46" />
    </g>
    <path
       inkscape:connector-curvature="0"
       style="fill:#ffffff;stroke:#8f8c87;stroke-width:0.52916664"
       id="Caminho_348"
       data-name="Caminho 348"
       d="m 68.505841,92.453271 c 0,0 1.463146,-5.5499 2.7813,-5.443008 1.318154,0.106891 1.817159,2.672291 2.636573,2.672291 0.819414,0 0.677068,-1.033198 1.460764,-1.033198 0.783696,0 1.710267,2.173553 1.710267,2.173553" />
    <path
       inkscape:connector-curvature="0"
       style="fill:none;stroke:#8f8c87;stroke-width:0.39687499"
       id="Caminho_349"
       data-name="Caminho 349"
       d="m 75.270178,92.268063 c -0.657754,-0.164571 -1.521089,-0.635 -1.98702,0.378883 -0.465931,1.013883 -1.445154,0.481806 -1.866636,1.046427 -0.421481,0.564621 -0.187589,1.42875 0.963348,0.880534 1.150938,-0.548217 3.470275,-0.305065 3.525044,-0.880534 0.05477,-0.575468 0.02408,-1.261533 -0.634736,-1.42531 z" />
  </g>
</svg>
