<?xml version="1.0" encoding="UTF-8" standalone="no"?>
<!-- Created with Inkscape (http://www.inkscape.org/) -->

<svg
   xmlns:dc="http://purl.org/dc/elements/1.1/"
   xmlns:cc="http://creativecommons.org/ns#"
   xmlns:rdf="http://www.w3.org/1999/02/22-rdf-syntax-ns#"
   xmlns:svg="http://www.w3.org/2000/svg"
   xmlns="http://www.w3.org/2000/svg"
   xmlns:sodipodi="http://sodipodi.sourceforge.net/DTD/sodipodi-0.dtd"
   xmlns:inkscape="http://www.inkscape.org/namespaces/inkscape"
   width="16.404167mm"
   height="16.404167mm"
   viewBox="0 0 16.404167 16.404167"
   version="1.1"
   id="svg165"
   inkscape:version="0.92.3 (2405546, 2018-03-11)"
   sodipodi:docname="icone-socioambiental.svg">
  <defs
     id="defs159" />
  <sodipodi:namedview
     id="base"
     pagecolor="#ffffff"
     bordercolor="#666666"
     borderopacity="1.0"
     inkscape:pageopacity="0.0"
     inkscape:pageshadow="2"
     inkscape:zoom="0.35"
     inkscape:cx="105.28571"
     inkscape:cy="-169"
     inkscape:document-units="mm"
     inkscape:current-layer="layer1"
     showgrid="false"
     inkscape:window-width="1880"
     inkscape:window-height="1055"
     inkscape:window-x="40"
     inkscape:window-y="0"
     inkscape:window-maximized="1" />
  <metadata
     id="metadata162">
    <rdf:RDF>
      <cc:Work
         rdf:about="">
        <dc:format>image/svg+xml</dc:format>
        <dc:type
           rdf:resource="http://purl.org/dc/dcmitype/StillImage" />
        <dc:title></dc:title>
      </cc:Work>
    </rdf:RDF>
  </metadata>
  <g
     inkscape:label="Camada 1"
     inkscape:groupmode="layer"
     id="layer1"
     transform="translate(-77.976488,-87.714583)">
    <g
       transform="matrix(0.26458333,0,0,0.26458333,71.361905,81.1)"
       id="g34">
      <g
         style="fill:none;stroke:#8f8c87;stroke-width:2.5"
         id="Elipse_270-3"
         data-name="Elipse 270"
         transform="translate(25,25)">
        <circle
           style="stroke:none"
           cx="31"
           cy="31"
           r="31"
           id="circle29" />
        <circle
           style="fill:none"
           cx="31"
           cy="31"
           r="29.75"
           id="circle31" />
      </g>
    </g>
    <g
       transform="matrix(0.26458333,0,0,0.26458333,81.906609,90.180765)"
       data-name="Grupo 524"
       id="Grupo_524">
      <g
         transform="translate(18.541,30.943)"
         data-name="Grupo 516"
         id="Grupo_516">
        <path
           transform="translate(-45.941,-76.669)"
           d="m 46.357,86.085 h -0.408 v -5.706 a 3.465,3.465 0 0 1 0.956,-2.607 c 0.912,-0.9 2.381,-1.255 4.367,-1.041 l -0.044,0.4 c -1.856,-0.2 -3.213,0.113 -4.036,0.928 a 3.106,3.106 0 0 0 -0.839,2.3 z"
           data-name="Caminho 338"
           id="Caminho_338"
           inkscape:connector-curvature="0"
           style="fill:#8f8c87;stroke:#8f8c87;stroke-width:1.5" />
      </g>
      <g
         transform="translate(9.149,30.943)"
         data-name="Grupo 517"
         id="Grupo_517">
        <path
           transform="translate(-22.67,-76.669)"
           d="m 27.993,86.085 h -0.408 v -5.706 a 3.108,3.108 0 0 0 -0.839,-2.321 c -0.823,-0.811 -2.175,-1.122 -4.032,-0.924 l -0.044,-0.4 c 1.986,-0.214 3.455,0.137 4.367,1.041 a 3.479,3.479 0 0 1 0.956,2.627 z"
           data-name="Caminho 339"
           id="Caminho_339"
           inkscape:connector-curvature="0"
           style="fill:#8f8c87;stroke:#8f8c87;stroke-width:1.5" />
      </g>
      <g
         data-name="Grupo 518"
         id="Grupo_518">
        <circle
           transform="translate(0.206,0.206)"
           r="16.305"
           cy="16.305"
           cx="16.305"
           data-name="Elipse 272"
           id="Elipse_272"
           style="fill:#ffffff" />
        <path
           d="m 16.511,33.021 a 16.511,16.511 0 1 1 16.51,-16.51 16.528,16.528 0 0 1 -16.51,16.51 z m 0,-32.614 a 16.1,16.1 0 1 0 16.1,16.1 16.122,16.122 0 0 0 -16.1,-16.099 z"
           data-name="Caminho 340"
           id="Caminho_340"
           inkscape:connector-curvature="0"
           style="fill:#8f8c87;stroke:#8f8c87;stroke-width:1.5" />
      </g>
      <g
         transform="translate(0.282,24.512)"
         data-name="Grupo 521"
         id="Grupo_521">
        <g
           data-name="Grupo 519"
           id="Grupo_519">
          <path
             transform="translate(-0.699,-60.735)"
             d="m 9.183,76.582 c 0,-0.032 -0.02,-3.2 -1.57,-4.746 A 9.463,9.463 0 0 0 5.187,70.262 C 4.021,69.662 2.923,69.096 2.665,68.075 a 18.256,18.256 0 0 1 -0.3,-1.881 C 2.159,64.594 1.905,62.606 1.122,62.081 0.666,61.781 0.686,61.447 0.714,61.318 a 0.829,0.829 0 0 1 0.751,-0.565 c 0.767,-0.117 1.909,0.315 2.8,1.873 a 9.073,9.073 0 0 1 0.993,2.409 c 0.19,0.706 0.2,0.747 1.275,0.747 1.913,0 3.757,1.982 4.452,2.728 0.077,0.081 0.133,0.145 0.178,0.186 l -0.287,0.287 c -0.044,-0.044 -0.1,-0.113 -0.186,-0.2 -0.662,-0.71 -2.417,-2.6 -4.153,-2.6 -1.279,0 -1.437,-0.174 -1.671,-1.049 A 8.785,8.785 0 0 0 3.914,62.821 C 3.127,61.441 2.138,61.057 1.529,61.15 c -0.258,0.04 -0.4,0.153 -0.416,0.25 -0.016,0.097 0.069,0.222 0.238,0.335 0.936,0.626 1.195,2.631 1.421,4.4 a 16.753,16.753 0 0 0 0.295,1.836 c 0.21,0.843 1.187,1.344 2.313,1.925 a 9.995,9.995 0 0 1 2.52,1.649 c 1.671,1.671 1.691,4.9 1.691,5.037 z"
             data-name="Caminho 341"
             id="Caminho_341"
             inkscape:connector-curvature="0"
             style="fill:#8f8c87;stroke:#8f8c87;stroke-width:1.5" />
        </g>
        <g
           transform="translate(22)"
           data-name="Grupo 520"
           id="Grupo_520">
          <path
             transform="translate(-55.21,-60.735)"
             d="m 57.184,76.582 h -0.408 c 0,-0.137 0.02,-3.366 1.691,-5.037 A 9.818,9.818 0 0 1 60.993,69.9 c 1.126,-0.581 2.1,-1.082 2.313,-1.925 0.117,-0.472 0.2,-1.134 0.295,-1.836 0.226,-1.768 0.484,-3.774 1.421,-4.4 0.17,-0.113 0.258,-0.238 0.238,-0.335 -0.02,-0.097 -0.157,-0.214 -0.416,-0.25 -0.609,-0.093 -1.594,0.291 -2.385,1.671 a 8.84,8.84 0 0 0 -0.952,2.313 c -0.234,0.88 -0.391,1.049 -1.671,1.049 -1.735,0 -3.491,1.889 -4.153,2.6 -0.081,0.085 -0.141,0.153 -0.186,0.2 L 55.21,68.7 c 0.04,-0.04 0.1,-0.1 0.178,-0.186 0.694,-0.747 2.539,-2.728 4.452,-2.728 1.078,0 1.086,-0.04 1.275,-0.747 a 9.073,9.073 0 0 1 0.993,-2.409 c 0.892,-1.558 2.03,-1.99 2.8,-1.873 a 0.83,0.83 0 0 1 0.751,0.565 c 0.028,0.129 0.044,0.46 -0.408,0.763 -0.783,0.521 -1.037,2.514 -1.243,4.113 a 17.9,17.9 0 0 1 -0.3,1.881 c -0.254,1.025 -1.356,1.59 -2.522,2.187 A 9.6,9.6 0 0 0 58.76,71.84 c -1.56,1.546 -1.576,4.71 -1.576,4.742 z"
             data-name="Caminho 342"
             id="Caminho_342"
             inkscape:connector-curvature="0"
             style="fill:#8f8c87;stroke:#8f8c87;stroke-width:1.5" />
        </g>
      </g>
      <g
         transform="translate(3.241,5.327)"
         data-name="Grupo 522"
         id="Grupo_522">
        <path
           transform="translate(-8.031,-13.198)"
           d="m 17.717,40.037 c -0.048,0 -0.093,-0.036 -0.157,-0.157 h -0.008 c 0,-0.016 -0.008,-0.028 -0.012,-0.044 -0.069,-0.133 -0.157,-0.351 -0.3,-0.69 -0.21,-0.492 -0.488,-1.154 -0.743,-1.752 a 11.319,11.319 0 0 1 -0.5,-1.748 8.432,8.432 0 0 0 -1.097,-2.978 10.385,10.385 0 0 0 -1.473,-1.429 5.677,5.677 0 0 1 -1.215,-1.231 c -0.521,-0.856 0.1,-3.467 0.9,-4.4 A 0.786,0.786 0 0 0 13.245,24.647 2.864,2.864 0 0 0 12.563,23.9 2.545,2.545 0 0 1 11.869,22.713 c -0.089,-0.23 -0.2,-0.509 -0.343,-0.852 -0.23,-0.541 -0.6,-0.545 -1.11,-0.553 A 1.969,1.969 0 0 1 9.044,20.921 1.322,1.322 0 0 0 8.455,20.586 C 8.132,20.505 8.124,20.386 8.055,19.63 A 5.244,5.244 0 0 1 8.281,17.539 C 8.181,17.164 7.805,15.38 9.024,14.855 a 14.074,14.074 0 0 1 4.092,-0.763 8.835,8.835 0 0 1 0.912,-0.02 2.941,2.941 0 0 0 2.2,-0.613 c 1.106,-0.88 2.635,0.7 3.37,1.457 0.133,0.137 0.238,0.246 0.307,0.3 a 0.556,0.556 0 0 1 0.17,0.5 4.188,4.188 0 0 1 -1.618,2.4 c -0.226,0.137 -0.246,0.521 -0.27,0.928 -0.04,0.666 -0.1,1.578 -1.239,1.675 a 1.072,1.072 0 0 0 -0.791,0.347 1.766,1.766 0 0 0 -0.1,1.324 c 0.016,0.1 0.032,0.182 0.036,0.238 0.016,0.2 -0.069,0.278 -0.141,0.311 -0.186,0.085 -0.319,-0.061 -0.638,-0.4 a 10.516,10.516 0 0 0 -0.872,-0.852 c -0.44,-0.371 -0.787,-0.133 -1.267,0.274 a 1.553,1.553 0 0 1 -0.476,0.323 6.266,6.266 0 0 0 1.4,1.594 c 0.92,0.775 0.948,0.823 1.021,1.7 0.008,0.1 0.153,0.359 1.287,0.408 a 24.8,24.8 0 0 0 2.623,-0.117 1.822,1.822 0 0 1 1.663,0.767 2.552,2.552 0 0 1 0.408,2.22 4.286,4.286 0 0 1 -0.456,0.8 2.353,2.353 0 0 0 -0.545,1.647 1.7,1.7 0 0 1 -0.779,1.457 c -0.367,0.327 -0.686,0.609 -0.642,1.118 a 15.541,15.541 0 0 1 -0.069,4.145 3.611,3.611 0 0 1 -0.613,1.788 L 18.041,39.928 17.842,40 a 0.806,0.806 0 0 1 -0.125,0.037 z M 8.511,20.181 c 0.008,0 0.016,0 0.024,0 a 1.637,1.637 0 0 1 0.755,0.42 1.594,1.594 0 0 0 1.11,0.299 1.355,1.355 0 0 1 1.481,0.8 c 0.149,0.351 0.258,0.634 0.351,0.868 a 2.2,2.2 0 0 0 0.577,1.021 c 0.44,0.375 1.477,1.247 0.6,2.284 -0.743,0.876 -1.263,3.261 -0.86,3.927 a 5.6,5.6 0 0 0 1.13,1.13 10.56,10.56 0 0 1 1.53,1.489 8.582,8.582 0 0 1 1.17,3.14 10.931,10.931 0 0 0 0.484,1.679 c 0.258,0.6 0.537,1.259 0.747,1.756 0.061,0.141 0.113,0.266 0.157,0.371 a 4.533,4.533 0 0 0 0.4,-1.4 15.1,15.1 0 0 0 0.065,-4.044 1.7,1.7 0 0 1 0.779,-1.457 c 0.367,-0.327 0.686,-0.609 0.642,-1.118 a 2.7,2.7 0 0 1 0.613,-1.9 3.835,3.835 0 0 0 0.416,-0.726 2.139,2.139 0 0 0 -0.355,-1.828 1.393,1.393 0 0 0 -1.3,-0.6 23.576,23.576 0 0 1 -2.676,0.121 c -0.694,-0.028 -1.622,-0.141 -1.675,-0.779 -0.061,-0.73 -0.061,-0.73 -0.876,-1.417 -0.367,-0.311 -1.707,-1.574 -1.546,-2.082 a 0.3,0.3 0 0 1 0.27,-0.206 1.284,1.284 0 0 0 0.351,-0.254 c 0.4,-0.335 1.057,-0.9 1.792,-0.274 a 10.772,10.772 0 0 1 0.908,0.888 l 0.012,0.012 a 1.875,1.875 0 0 1 0.218,-1.457 1.456,1.456 0 0 1 1.082,-0.509 c 0.751,-0.065 0.819,-0.533 0.864,-1.3 0.028,-0.492 0.061,-1 0.468,-1.251 a 3.9,3.9 0 0 0 1.425,-2.087 c 0,-0.077 0,-0.137 -0.028,-0.157 -0.077,-0.065 -0.19,-0.182 -0.335,-0.331 -0.654,-0.674 -2.01,-2.07 -2.825,-1.425 a 3.336,3.336 0 0 1 -2.454,0.7 8.037,8.037 0 0 0 -0.872,0.02 13.785,13.785 0 0 0 -3.963,0.73 c -1,0.432 -0.5,2.244 -0.492,2.26 l 0.02,0.069 -0.024,0.065 a 4.791,4.791 0 0 0 -0.222,1.974 3.545,3.545 0 0 0 0.062,0.579 z"
           data-name="Caminho 343"
           id="Caminho_343"
           inkscape:connector-curvature="0"
           style="fill:#8f8c87;stroke:#8f8c87;stroke-width:1" />
      </g>
      <g
         transform="translate(19.009,2.361)"
         data-name="Grupo 523"
         id="Grupo_523">
        <path
           transform="translate(-47.101,-5.85)"
           d="M 58.7,28.124 58.3,28.063 A 1.949,1.949 0 0 0 57.638,26.32 c -0.779,-0.553 -0.932,-1.913 -1.082,-3.229 -0.048,-0.42 -0.1,-0.856 -0.161,-1.251 -0.165,-0.952 -1.679,-0.819 -3.144,-0.686 a 12.019,12.019 0 0 1 -1.768,0.077 c -1.614,-0.121 -1.893,-2.442 -2.022,-3.556 -0.02,-0.17 -0.036,-0.319 -0.056,-0.424 -0.153,-0.892 1.534,-2 2.974,-2.773 l 0.061,-0.02 2.01,-0.343 c 0.319,-0.057 0.617,-0.646 0.613,-1.211 a 0.785,0.785 0 0 0 -0.622,-0.864 1.167,1.167 0 0 0 -1.029,0.222 0.767,0.767 0 0 0 -0.206,0.622 c 0.093,0.529 0.133,0.884 -0.113,0.985 -0.246,0.101 -0.464,-0.2 -0.585,-0.359 a 2.545,2.545 0 0 1 -0.371,-0.739 c -0.1,-0.295 -0.1,-0.307 -0.44,-0.246 -0.718,0.125 -1.36,1.029 -1.671,1.465 -0.077,0.1 -0.024,0.258 0.065,0.492 a 0.924,0.924 0 0 1 -0.234,1.231 1.673,1.673 0 0 1 -1.513,0.42 0.812,0.812 0 0 1 -0.484,-0.678 4.15,4.15 0 0 0 -0.266,-0.718 C 47.287,14.019 46.9,13.127 47.247,12.489 a 1.355,1.355 0 0 1 1.033,-0.626 c 0.888,-0.153 1.013,-0.412 1.187,-0.775 A 2.433,2.433 0 0 1 51.186,9.712 C 52.486,9.26 52.691,8.893 52.679,8.84 52.667,8.787 52.405,8.67 51.879,8.759 A 1.229,1.229 0 0 1 50.713,8.19 1.459,1.459 0 0 1 50.548,6.677 C 50.77,6.269 51.323,5.801 52.731,5.854 L 52.715,6.262 C 51.787,6.218 51.141,6.44 50.907,6.871 a 1.058,1.058 0 0 0 0.137,1.082 0.826,0.826 0 0 0 0.767,0.4 c 0.674,-0.117 1.166,0.032 1.259,0.379 0.117,0.448 -0.488,0.92 -1.752,1.356 -1.106,0.383 -1.3,0.783 -1.485,1.166 -0.2,0.416 -0.391,0.811 -1.485,1 a 0.959,0.959 0 0 0 -0.743,0.416 c -0.25,0.46 0.089,1.255 0.363,1.889 a 4.071,4.071 0 0 1 0.295,0.811 0.43,0.43 0 0 0 0.234,0.367 1.391,1.391 0 0 0 1.118,-0.371 c 0.287,-0.21 0.23,-0.4 0.1,-0.759 a 0.9,0.9 0 0 1 -0.016,-0.872 c 0.339,-0.48 1.049,-1.481 1.933,-1.635 0.63,-0.109 0.767,0.133 0.9,0.517 a 2.185,2.185 0 0 0 0.311,0.63 0.171,0.171 0 0 1 0.02,0.028 c -0.016,-0.133 -0.04,-0.274 -0.052,-0.343 a 1.147,1.147 0 0 1 0.319,-0.973 1.5,1.5 0 0 1 1.384,-0.339 1.165,1.165 0 0 1 0.969,1.263 c 0.008,0.7 -0.375,1.517 -0.952,1.618 l -1.978,0.339 c -1.772,0.952 -2.821,1.844 -2.736,2.329 0.02,0.113 0.036,0.266 0.061,0.444 0.129,1.086 0.371,3.1 1.651,3.2 a 11.168,11.168 0 0 0 1.7,-0.073 c 1.574,-0.141 3.358,-0.3 3.584,1.025 0.069,0.408 0.121,0.848 0.165,1.275 0.137,1.227 0.278,2.494 0.908,2.942 a 2.34,2.34 0 0 1 0.814,2.142 z"
           data-name="Caminho 344"
           id="Caminho_344"
           inkscape:connector-curvature="0"
           style="fill:#8f8c87;stroke:#8f8c87;stroke-width:1" />
      </g>
    </g>
  </g>
</svg>
