<?xml version="1.0" encoding="UTF-8" standalone="no"?>
<!-- Created with Inkscape (http://www.inkscape.org/) -->

<svg
   xmlns:dc="http://purl.org/dc/elements/1.1/"
   xmlns:cc="http://creativecommons.org/ns#"
   xmlns:rdf="http://www.w3.org/1999/02/22-rdf-syntax-ns#"
   xmlns:svg="http://www.w3.org/2000/svg"
   xmlns="http://www.w3.org/2000/svg"
   xmlns:sodipodi="http://sodipodi.sourceforge.net/DTD/sodipodi-0.dtd"
   xmlns:inkscape="http://www.inkscape.org/namespaces/inkscape"
   width="16.404167mm"
   height="16.404167mm"
   viewBox="0 0 16.404167 16.404167"
   version="1.1"
   id="svg157"
   inkscape:version="0.92.3 (2405546, 2018-03-11)"
   sodipodi:docname="icone-monitoramento.svg">
  <defs
     id="defs151" />
  <sodipodi:namedview
     id="base"
     pagecolor="#ffffff"
     bordercolor="#666666"
     borderopacity="1.0"
     inkscape:pageopacity="0.0"
     inkscape:pageshadow="2"
     inkscape:zoom="0.35"
     inkscape:cx="185.28572"
     inkscape:cy="53.857158"
     inkscape:document-units="mm"
     inkscape:current-layer="layer1"
     showgrid="false"
     inkscape:window-width="1880"
     inkscape:window-height="1055"
     inkscape:window-x="40"
     inkscape:window-y="0"
     inkscape:window-maximized="1" />
  <metadata
     id="metadata154">
    <rdf:RDF>
      <cc:Work
         rdf:about="">
        <dc:format>image/svg+xml</dc:format>
        <dc:type
           rdf:resource="http://purl.org/dc/dcmitype/StillImage" />
        <dc:title></dc:title>
      </cc:Work>
    </rdf:RDF>
  </metadata>
  <g
     inkscape:label="Camada 1"
     inkscape:groupmode="layer"
     id="layer1"
     transform="translate(-56.80982,-146.67887)">
    <g
       transform="matrix(0.26458333,0,0,0.26458333,50.195237,140.06429)"
       id="g27">
      <g
         style="fill:none;stroke:#8f8c87;stroke-width:2.5"
         id="Elipse_270-2"
         data-name="Elipse 270"
         transform="translate(25,25)">
        <circle
           style="stroke:none"
           cx="31"
           cy="31"
           r="31"
           id="circle22" />
        <circle
           style="fill:none"
           cx="31"
           cy="31"
           r="29.75"
           id="circle24" />
      </g>
    </g>
    <g
       transform="matrix(-0.26458333,0,0,-0.26458333,68.935147,158.62745)"
       data-name="Grupo 515"
       id="Grupo_515">
      <path
         d="M 5.693,36.8 A 2.276,2.276 0 0 1 4.062,36.123 L 0.675,32.741 a 2.308,2.308 0 0 1 0,-3.263 l 8.2,-8.2 a 2.672,2.672 0 0 1 1.793,-0.846 v 0 a 1.424,1.424 0 0 1 1.016,0.4 3,3 0 0 0 0.877,0.516 c 0.1,-0.316 0.146,-0.839 -0.008,-0.993 0,0 -0.585,-0.585 -1.439,-1.416 A 4.322,4.322 0 0 1 9.76,16.184 L 9.729,15.807 A 0.4,0.4 0 0 0 9.714,15.699 H 8.971 A 16.982,16.982 0 0 1 6.786,15.568 L 6.524,15.53 5.855,14.807 A 0.965,0.965 0 0 1 5.57,14.114 2.967,2.967 0 0 1 6.54,12.275 l 5.8,-5.8 C 13.271,5.544 14.41,5.29 15.049,5.867 l 0.108,0.115 0.239,0.339 a 2.174,2.174 0 0 1 0.385,1.185 c 0.031,0.962 0.023,1.331 0.023,1.331 a 4.306,4.306 0 0 0 0.069,0.839 c 0.408,0.062 0.977,0.169 1.324,0.262 a 10.258,10.258 0 0 1 2.578,1.839 c 0.008,0.008 0.723,0.723 1.224,1.247 v 0 a 2.142,2.142 0 0 0 0.4,-0.854 3.312,3.312 0 0 1 -0.6,-1.885 1.942,1.942 0 0 1 0.523,-1.424 l 8.2,-8.188 a 2.308,2.308 0 0 1 3.263,0 l 3.365,3.365 a 2.3,2.3 0 0 1 0,3.263 L 28,15.442 a 2.854,2.854 0 0 1 -1.8,0.846 1.381,1.381 0 0 1 -1.008,-0.408 3.027,3.027 0 0 0 -0.9,-0.516 c -0.177,0.192 -0.385,0.423 -0.546,0.608 0.192,0.385 0.385,0.839 0.446,1.008 0.446,1.17 -1.193,3.409 -1.654,3.878 -0.015,0.015 -1.416,1.447 -2.686,2.663 a 2.976,2.976 0 0 1 -3.963,0.162 0.2,0.2 0 0 1 -0.046,0.038 2.17,2.17 0 0 0 -0.377,0.831 3.389,3.389 0 0 1 0.616,1.924 1.963,1.963 0 0 1 -0.516,1.416 L 7.332,36.127 A 2.307,2.307 0 0 1 5.693,36.8 Z m 4.963,-14.821 a 1.3,1.3 0 0 0 -0.693,0.392 l -8.2,8.2 a 0.766,0.766 0 0 0 0,1.085 l 3.386,3.386 a 0.776,0.776 0 0 0 1.093,0 l 8.234,-8.234 c 0.177,-0.177 0,-1.039 -0.208,-1.285 a 1.523,1.523 0 0 1 -0.185,-1.708 3.326,3.326 0 0 1 0.677,-1.17 c 0.662,-0.662 1.416,-0.8 1.878,-0.354 l 0.115,0.108 a 1.466,1.466 0 0 0 2.039,0.023 c 1.247,-1.208 2.639,-2.624 2.655,-2.639 a 6.173,6.173 0 0 0 1.293,-2.3 9.815,9.815 0 0 0 -0.508,-1.085 c -0.469,-0.562 0,-1.139 1.131,-2.285 a 1.1,1.1 0 0 1 0.808,-0.316 3.76,3.76 0 0 1 2.07,0.954 1.262,1.262 0 0 0 0.685,-0.392 L 35.06,6.21 a 0.78,0.78 0 0 0 0,-1.093 L 31.7,1.753 a 0.776,0.776 0 0 0 -1.093,0 l -8.188,8.2 c -0.169,0.169 -0.015,1.023 0.192,1.27 0.823,0.816 -0.046,2.424 -0.508,2.893 a 1.844,1.844 0 0 1 -1.316,0.639 L 20.425,14.717 20.233,14.455 C 20.1,14.3 19.113,13.3 18.7,12.88 A 10.851,10.851 0 0 0 16.784,11.426 12.737,12.737 0 0 0 15.36,11.164 c -0.731,-0.046 -1.1,-0.831 -1.085,-2.339 0,-0.015 0,-0.377 -0.023,-1.27 A 0.659,0.659 0 0 0 14.167,7.232 l -0.077,-0.1 a 1.75,1.75 0 0 0 -0.654,0.439 l -5.81,5.8 a 2.6,2.6 0 0 0 -0.462,0.593 l 0.123,0.131 c 0.446,0.046 1.17,0.077 1.685,0.077 h 0.923 a 1.513,1.513 0 0 1 1.37,1.531 l 0.031,0.354 a 2.8,2.8 0 0 0 0.9,1.793 c 0.854,0.839 1.439,1.424 1.439,1.424 a 2.719,2.719 0 0 1 -0.069,3.355 1.066,1.066 0 0 1 -0.8,0.316 v 0 a 3.731,3.731 0 0 1 -2.11,-0.962 z m 4.91,1.424 0.023,0.023 z m 7.826,-8 a 1.132,1.132 0 0 1 0.1,0.131 0.84,0.84 0 0 0 -0.1,-0.134 z m 2.893,-0.6 z M 6.924,13.711 6.993,13.78 Z M 21.36,13.419 c 0.054,0.062 0.092,0.108 0.108,0.131 A 0.611,0.611 0 0 0 21.36,13.419 Z"
         data-name="Caminho 337"
         id="Caminho_337"
         inkscape:connector-curvature="0"
         style="fill:#8f8c87;stroke:#8f8c87;stroke-width:1" />
    </g>
    <g
       transform="matrix(0.26458333,0,0,0.26458333,63.763337,155.59374)"
       data-name="Grupo 514"
       id="Grupo_514">
      <line
         transform="translate(15.976,10.472)"
         y2="3.313"
         x2="7.9530001"
         data-name="Linha 193"
         id="Linha_193"
         x1="0"
         y1="0"
         style="fill:none;stroke:#8f8c87;stroke-width:2.5;stroke-linecap:round" />
      <g
         data-name="Elipse 262"
         id="Elipse_262"
         style="fill:none;stroke:#8f8c87;stroke-width:2;stroke-linecap:round">
        <ellipse
           id="ellipse49"
           ry="8.066"
           rx="8.4510002"
           cy="8.066"
           cx="8.4510002"
           style="stroke:none" />
        <ellipse
           id="ellipse51"
           ry="7.066"
           rx="7.4510002"
           cy="8.066"
           cx="8.4510002"
           style="fill:none" />
      </g>
    </g>
  </g>
</svg>
