<?xml version="1.0" encoding="UTF-8" standalone="no"?>
<!-- Created with Inkscape (http://www.inkscape.org/) -->

<svg
   xmlns:dc="http://purl.org/dc/elements/1.1/"
   xmlns:cc="http://creativecommons.org/ns#"
   xmlns:rdf="http://www.w3.org/1999/02/22-rdf-syntax-ns#"
   xmlns:svg="http://www.w3.org/2000/svg"
   xmlns="http://www.w3.org/2000/svg"
   xmlns:sodipodi="http://sodipodi.sourceforge.net/DTD/sodipodi-0.dtd"
   xmlns:inkscape="http://www.inkscape.org/namespaces/inkscape"
   width="16.404167mm"
   height="16.404167mm"
   viewBox="0 0 16.404167 16.404167"
   version="1.1"
   id="svg47"
   inkscape:version="0.92.3 (2405546, 2018-03-11)"
   sodipodi:docname="icone-de-plantio.svg">
  <defs
     id="defs41" />
  <sodipodi:namedview
     id="base"
     pagecolor="#ffffff"
     bordercolor="#666666"
     borderopacity="1.0"
     inkscape:pageopacity="0.0"
     inkscape:pageshadow="2"
     inkscape:zoom="0.35"
     inkscape:cx="39.571427"
     inkscape:cy="-106.14286"
     inkscape:document-units="mm"
     inkscape:current-layer="layer1"
     showgrid="false"
     inkscape:window-width="1880"
     inkscape:window-height="1055"
     inkscape:window-x="40"
     inkscape:window-y="0"
     inkscape:window-maximized="1" />
  <metadata
     id="metadata44">
    <rdf:RDF>
      <cc:Work
         rdf:about="">
        <dc:format>image/svg+xml</dc:format>
        <dc:type
           rdf:resource="http://purl.org/dc/dcmitype/StillImage" />
        <dc:title></dc:title>
      </cc:Work>
    </rdf:RDF>
  </metadata>
  <g
     inkscape:label="Camada 1"
     inkscape:groupmode="layer"
     id="layer1"
     transform="translate(-95.363393,-104.34554)">
    <g
       id="g12"
       transform="matrix(0.26458333,0,0,0.26458333,88.74881,97.730953)">
      <g
         style="fill:none;stroke:#8f8c87;stroke-width:2"
         transform="translate(25,25)"
         data-name="Elipse 270"
         id="Elipse_270">
        <circle
           style="stroke:none"
           id="circle7"
           r="31"
           cy="31"
           cx="31" />
        <circle
           style="fill:none"
           id="circle9"
           r="30"
           cy="31"
           cx="31" />
      </g>
    </g>
    <g
       id="Grupo_526"
       data-name="Grupo 526"
       transform="matrix(0.26458333,0,0,0.26458333,98.166389,107.64754)">
      <path
         style="fill:#8f8c87;stroke:#8f8c87;stroke-width:2"
         inkscape:connector-curvature="0"
         id="Caminho_350"
         data-name="Caminho 350"
         d="m 31.144,63.176 a 6.734,6.734 0 0 1 -0.952,1.3 7.687,7.687 0 0 0 -1.385,3.544 c -0.655,2.828 -1.4,6.038 -5.359,6.038 -4.319,0 -5.895,-2.753 -6.938,-4.574 a 3.958,3.958 0 0 0 -1.235,-1.6 C 14.944,67.72 14.791,67.127 14.589,66.373 14.074,64.422 13.296,61.473 8.319,60.98 A 48.784,48.784 0 0 0 2.878,60.635 11.087,11.087 0 0 1 0.078,60.294 L 0,60.672 c 3.486,0.7 1.429,0.007 8.279,0.692 4.7,0.471 5.441,3.258 5.929,5.1 0.225,0.846 0.4,1.518 0.887,1.76 a 4.033,4.033 0 0 1 1.071,1.443 c 1.088,1.9 2.736,4.772 7.28,4.772 4.271,0 5.086,-3.517 5.741,-6.341 a 7.544,7.544 0 0 1 1.283,-3.357 6.933,6.933 0 0 0 1.01,-1.368 c 1,-1.641 1.791,-2.937 9.828,-1.33 l 0.078,-0.385 C 33.078,60 32.181,61.47 31.144,63.176 Z"
         transform="translate(0,-39.724)" />
      <path
         style="fill:#8f8c87;stroke:#8f8c87;stroke-width:2"
         inkscape:connector-curvature="0"
         id="Caminho_351"
         data-name="Caminho 351"
         d="m 17.618,7.048 a 5.691,5.691 0 0 0 1.044,0.1 7.1,7.1 0 0 0 4.6,-1.948 c 2.112,1.559 3.674,5.929 4.67,9.654 -0.065,-0.017 0.106,0.4 0.106,0.4 0.655,2.521 1.04,4.667 1.153,5.328 -2.343,0.28 -4.1,4.779 -4.1,7.068 a 4.3255014,4.3255014 0 1 0 8.651,-0.007 c 0,-2.306 -1.787,-6.863 -4.158,-7.071 -0.106,-0.631 -0.515,-3 -1.245,-5.748 0.218,-0.866 0.768,-2.705 1.62,-3.381 0.02,0.041 0.041,0.082 0.061,0.119 a 3.1,3.1 0 0 0 2.79,1.279 h 0.133 A 6.045,6.045 0 0 0 38.16,9.316 l 0.075,-0.154 -0.14,-0.1 C 37.979,8.98 35.189,7.097 32.705,7.582 a 3.632,3.632 0 0 0 -2.395,1.648 2.4,2.4 0 0 0 -0.471,1.822 6.034,6.034 0 0 0 -1.7,3.022 c -1,-3.575 -2.517,-7.559 -4.574,-9.145 v 0 l -0.007,-0.1 A 4.549,4.549 0 0 0 19.269,0.716 21.355,21.355 0 0 0 15.448,0.788 8.475,8.475 0 0 1 10.622,0.235 L 10.11,0 10.362,0.5 c 0.116,0.233 2.927,5.736 7.256,6.548 z m 13.021,2.4 a 3.257,3.257 0 0 1 2.142,-1.477 4.156,4.156 0 0 1 0.771,-0.072 8.864,8.864 0 0 1 4.179,1.4 5.633,5.633 0 0 1 -4.793,3.149 2.8,2.8 0 0 1 -2.569,-1.078 1.805,1.805 0 0 1 0.27,-1.921 z m 2.715,18.192 a 3.933,3.933 0 1 1 -7.866,0 c 0,-2.2 1.822,-6.689 3.933,-6.689 2.111,0 3.933,4.486 3.933,6.69 z M 15.483,1.177 a 20.976,20.976 0 0 1 3.756,-0.072 4.083,4.083 0 0 1 3.926,3.664 6.368,6.368 0 0 1 -5.472,1.893 c -3.4,-0.638 -5.912,-4.479 -6.71,-5.85 a 9.35,9.35 0 0 0 4.5,0.365 z"
         transform="translate(-6.661)" />
    </g>
  </g>
</svg>
