<?xml version="1.0" encoding="UTF-8" standalone="no"?>
<!-- Created with Inkscape (http://www.inkscape.org/) -->

<svg
   xmlns:dc="http://purl.org/dc/elements/1.1/"
   xmlns:cc="http://creativecommons.org/ns#"
   xmlns:rdf="http://www.w3.org/1999/02/22-rdf-syntax-ns#"
   xmlns:svg="http://www.w3.org/2000/svg"
   xmlns="http://www.w3.org/2000/svg"
   xmlns:sodipodi="http://sodipodi.sourceforge.net/DTD/sodipodi-0.dtd"
   xmlns:inkscape="http://www.inkscape.org/namespaces/inkscape"
   width="16.404167mm"
   height="16.404167mm"
   viewBox="0 0 16.404167 16.404167"
   version="1.1"
   id="svg55"
   inkscape:version="0.92.3 (2405546, 2018-03-11)"
   sodipodi:docname="icone-desenvolvimento-de-lavoura.svg">
  <defs
     id="defs49" />
  <sodipodi:namedview
     id="base"
     pagecolor="#ffffff"
     bordercolor="#666666"
     borderopacity="1.0"
     inkscape:pageopacity="0.0"
     inkscape:pageshadow="2"
     inkscape:zoom="0.35"
     inkscape:cx="136.71428"
     inkscape:cy="-171.85714"
     inkscape:document-units="mm"
     inkscape:current-layer="layer1"
     showgrid="false"
     inkscape:window-width="1880"
     inkscape:window-height="1055"
     inkscape:window-x="40"
     inkscape:window-y="0"
     inkscape:window-maximized="1" />
  <metadata
     id="metadata52">
    <rdf:RDF>
      <cc:Work
         rdf:about="">
        <dc:format>image/svg+xml</dc:format>
        <dc:type
           rdf:resource="http://purl.org/dc/dcmitype/StillImage" />
        <dc:title></dc:title>
      </cc:Work>
    </rdf:RDF>
  </metadata>
  <g
     inkscape:label="Camada 1"
     inkscape:groupmode="layer"
     id="layer1"
     transform="translate(-69.661012,-86.958631)">
    <g
       id="g19"
       transform="matrix(0.26458333,0,0,0.26458333,63.046429,80.344048)">
      <g
         style="fill:none;stroke:#8f8c87;stroke-width:2"
         transform="translate(25,25)"
         data-name="Elipse 270"
         id="Elipse_270-2">
        <circle
           style="stroke:none"
           id="circle14"
           r="31"
           cy="31"
           cx="31" />
        <circle
           style="fill:none"
           id="circle16"
           r="30"
           cy="31"
           cx="31" />
      </g>
    </g>
    <path
       inkscape:connector-curvature="0"
       style="fill:#8f8c87;stroke:#8f8c87;stroke-width:0.26458332"
       id="Caminho_352"
       data-name="Caminho 352"
       d="m 82.136645,97.660762 a 7.9277104,7.9277104 0 0 1 -1.097491,0 8.0584146,8.0584146 0 0 1 -0.114036,-1.2573 0.64558333,0.64558333 0 0 0 0,-0.130175 8.2269542,8.2269542 0 0 1 0.777611,-3.463131 0.8636,0.8636 0 0 0 0.346075,0.07593 0.79824792,0.79824792 0 0 0 0.663575,-0.380471 3.9737771,3.9737771 0 0 1 0.561446,-0.697706 l 0.04842,-0.0336 -0.04974,-0.03096 a 1.2946062,1.2946062 0 0 0 -1.243542,0 0.81835625,0.81835625 0 0 0 -0.396875,1.020498 l 0.004,0.01005 a 8.2724625,8.2724625 0 0 0 -0.737957,2.62599 c -0.04551,-0.396875 -0.132292,-0.796925 -0.163777,-1.177396 a 7.7962125,7.7962125 0 0 1 0.274637,-2.103438 1.9076458,1.9076458 0 0 1 0.09313,-0.255587 0.46011042,0.46011042 0 0 0 0.20664,0.05106 0.42730208,0.42730208 0 0 0 0.354806,-0.202671 2.1658792,2.1658792 0 0 1 0.283898,-0.354277 l 0.04842,-0.03228 -0.04974,-0.03201 a 0.66939583,0.66939583 0 0 0 -0.657489,0 0.428625,0.428625 0 0 0 -0.229394,0.485775 1.74625,1.74625 0 0 0 -0.12356,0.319352 6.5534646,6.5534646 0 0 0 -0.279665,1.972469 c -0.03889,-0.168276 -0.07937,-0.336022 -0.118798,-0.50271 -0.06377,-0.264583 -0.128852,-0.536045 -0.217487,-0.798248 a 4.6646042,4.6646042 0 0 0 -0.474134,-0.994833 0.42333333,0.42333333 0 0 0 0.0026,-0.275696 0.60668958,0.60668958 0 0 0 -0.380735,-0.336285 1.4999229,1.4999229 0 0 0 -1.090877,0 l -0.07329,0.03281 0.07038,0.03678 a 3.0122812,3.0122812 0 0 1 0.493183,0.439473 0.80380417,0.80380417 0 0 0 0.584994,0.240771 0.9699625,0.9699625 0 0 0 0.350308,-0.06509 4.5706771,4.5706771 0 0 1 0.445558,0.944562 c 0.08731,0.259027 0.1524,0.529167 0.2159,0.791634 a 12.849225,12.849225 0 0 1 0.393171,2.179637 c 0,0 0.0053,0.116152 0.0026,0.173831 -0.02646,-0.124883 -0.05556,-0.249502 -0.08599,-0.373591 a 3.4252958,3.4252958 0 0 0 -0.293158,-0.84455 1.3911792,1.3911792 0 0 0 -0.573617,-0.586317 0.65616667,0.65616667 0 0 0 0.01878,-0.460904 0.93794792,0.93794792 0 0 0 -0.590285,-0.518584 2.3923625,2.3923625 0 0 0 -1.709472,0 l -0.07303,0.03281 0.07117,0.03678 a 4.7304854,4.7304854 0 0 1 0.785283,0.700617 1.2522729,1.2522729 0 0 0 0.910431,0.374915 1.4864292,1.4864292 0 0 0 0.544778,-0.101336 1.3170958,1.3170958 0 0 1 0.548745,0.5588 3.3991021,3.3991021 0 0 1 0.28575,0.825765 c 0.05556,0.230717 0.105834,0.464344 0.15293,0.697177 a 8.1616021,8.1616021 0 0 0 0.111917,1.375833 c -0.297126,-0.01138 -0.623357,-0.02646 -0.945885,-0.03969 a 23.570406,23.570406 0 0 0 -2.383102,-0.0463 20.950237,20.950237 0 0 1 -2.700337,0.121444 8.0269292,8.0269292 0 0 1 -0.105833,-1.201473 0.64584792,0.64584792 0 0 0 0,-0.130175 8.2285417,8.2285417 0 0 1 0.778404,-3.46128 0.86386458,0.86386458 0 0 0 0.346075,0.07594 0.79983542,0.79983542 0 0 0 0.663575,-0.38047 3.9737771,3.9737771 0 0 1 0.561446,-0.697707 l 0.04842,-0.0336 -0.04974,-0.03096 a 1.2940771,1.2940771 0 0 0 -1.243542,0 0.81835625,0.81835625 0 0 0 -0.396875,1.020498 l 0.004,0.01005 a 8.3002437,8.3002437 0 0 0 -0.778043,3.165213 c -0.02646,-0.124883 -0.05556,-0.249502 -0.08599,-0.373592 a 3.4075687,3.4075687 0 0 0 -0.293158,-0.84455 1.3911792,1.3911792 0 0 0 -0.573617,-0.586316 0.65616667,0.65616667 0 0 0 0.01826,-0.462492 0.93609583,0.93609583 0 0 0 -0.591079,-0.517789 2.3923625,2.3923625 0 0 0 -1.709473,0 l -0.07646,0.03466 0.07117,0.03678 a 4.7304854,4.7304854 0 0 1 0.785548,0.699823 1.2522729,1.2522729 0 0 0 0.910431,0.374915 1.5023042,1.5023042 0 0 0 0.544777,-0.101336 1.3170958,1.3170958 0 0 1 0.548746,0.5588 3.343275,3.343275 0 0 1 0.28575,0.825765 c 0.05556,0.230187 0.105833,0.46355 0.152929,0.696383 a 8.1679521,8.1679521 0 0 0 0.103187,1.322917 c -0.216693,-0.0053 -0.411956,-0.01535 -0.569648,-0.03149 a 9.9771729,9.9771729 0 0 0 -2.307166,0 l 0.01085,0.07647 a 9.8954167,9.8954167 0 0 1 2.289175,0 c 0.162983,0.01614 0.881591,0.03625 0.99351,0.03625 a 19.839781,19.839781 0 0 0 2.375694,-0.125413 c 0.264583,-0.04418 1.333764,0.0021 2.366962,0.04683 a 19.499792,19.499792 0 0 0 2.143125,0.04101 21.713825,21.713825 0 0 1 2.20054,-0.08731 v -0.07726 a 21.527558,21.527558 0 0 0 -2.21959,0.09128 z M 81.325697,91.35971 a 0.60668958,0.60668958 0 0 1 0.53393,-0.02408 3.5411833,3.5411833 0 0 0 -0.259028,0.330729 0.34395833,0.34395833 0 0 1 -0.458258,0.132292 0.35268958,0.35268958 0 0 1 0.183356,-0.438944 z m -2.405856,0.259027 a 4.8215021,4.8215021 0 0 0 -0.446881,-0.408516 1.4448896,1.4448896 0 0 1 0.963348,0.02646 0.53525208,0.53525208 0 0 1 0.336814,0.289189 0.33072917,0.33072917 0 0 1 0.01349,0.162455 c -0.0013,-0.0021 -0.02646,0.09869 -0.02963,0.09737 a 0.79745417,0.79745417 0 0 1 -0.837141,-0.166953 z m 3.145896,0.191294 a 1.2123208,1.2123208 0 0 1 1.119717,-0.02646 5.8906833,5.8906833 0 0 0 -0.536046,0.676275 0.70088125,0.70088125 0 0 1 -0.9144,0.280458 c 0.0066,-0.01349 -0.05292,-0.07038 -0.05292,-0.06906 a 0.72284167,0.72284167 0 0 1 0.383384,-0.861483 z m -3.603625,2.060311 a 6.911975,6.911975 0 0 0 -0.738717,-0.670984 2.3193375,2.3193375 0 0 1 1.581415,0.02646 0.8683625,0.8683625 0 0 1 0.5461,0.471752 0.57996667,0.57996667 0 0 1 -0.01535,0.403225 h -0.0021 l -0.01349,0.0336 a 1.2853458,1.2853458 0 0 1 -1.357858,-0.264053 z m -2.495021,-1.971675 a 1.2123208,1.2123208 0 0 1 1.119717,-0.02646 5.8906833,5.8906833 0 0 0 -0.536046,0.676275 0.70088125,0.70088125 0 0 1 -0.9144,0.280459 0.24500417,0.24500417 0 0 1 -0.05292,-0.06906 0.72178333,0.72178333 0 0 1 0.383117,-0.861483 z m -3.604683,2.060045 a 6.911975,6.911975 0 0 0 -0.738717,-0.670718 2.3235708,2.3235708 0 0 1 1.581415,0.02646 0.8683625,0.8683625 0 0 1 0.5461,0.471487 0.57996667,0.57996667 0 0 1 -0.01535,0.403225 h -0.0021 l -0.01349,0.0336 a 1.2840229,1.2840229 0 0 1 -1.357838,-0.264054 z" />
  </g>
</svg>
