<svg id="Grupo_512" data-name="Grupo 512" xmlns="http://www.w3.org/2000/svg" width="23.105" height="23.104" viewBox="0 0 23.105 23.104">
  <path id="Caminho_334" data-name="Caminho 334" d="M11.552,2.081c3.085,0,3.45.012,4.668.067a6.394,6.394,0,0,1,2.145.4,3.584,3.584,0,0,1,1.328.864,3.572,3.572,0,0,1,.864,1.328,6.394,6.394,0,0,1,.4,2.145c.055,1.218.067,1.583.067,4.668s-.012,3.45-.067,4.668a6.394,6.394,0,0,1-.4,2.145,3.822,3.822,0,0,1-2.192,2.192,6.394,6.394,0,0,1-2.145.4c-1.218.055-1.583.067-4.668.067s-3.45-.012-4.668-.067a6.394,6.394,0,0,1-2.145-.4,3.584,3.584,0,0,1-1.328-.864,3.572,3.572,0,0,1-.864-1.328,6.394,6.394,0,0,1-.4-2.145c-.055-1.218-.067-1.583-.067-4.668s.012-3.45.067-4.668a6.394,6.394,0,0,1,.4-2.145A3.584,3.584,0,0,1,3.41,3.41a3.572,3.572,0,0,1,1.328-.864,6.394,6.394,0,0,1,2.145-.4c1.218-.055,1.583-.067,4.668-.067m0-2.081C8.414,0,8.021.013,6.789.07a8.474,8.474,0,0,0-2.8.537A5.658,5.658,0,0,0,1.939,1.939,5.658,5.658,0,0,0,.607,3.985a8.474,8.474,0,0,0-.537,2.8C.013,8.021,0,8.414,0,11.552s.013,3.531.07,4.763a8.474,8.474,0,0,0,.537,2.8,5.658,5.658,0,0,0,1.333,2.046A5.661,5.661,0,0,0,3.985,22.5a8.471,8.471,0,0,0,2.8.537c1.232.056,1.626.07,4.763.07s3.531-.013,4.763-.07a8.471,8.471,0,0,0,2.8-.537A5.909,5.909,0,0,0,22.5,19.119a8.472,8.472,0,0,0,.537-2.8c.056-1.232.07-1.626.07-4.763s-.013-3.531-.07-4.763a8.472,8.472,0,0,0-.537-2.8,5.658,5.658,0,0,0-1.333-2.046A5.661,5.661,0,0,0,19.119.606a8.493,8.493,0,0,0-2.8-.537C15.083.013,14.689,0,11.552,0Z" transform="translate(0 0)" fill="#8f8c87"/>
  <path id="Caminho_335" data-name="Caminho 335" d="M128.493,122.56a5.933,5.933,0,1,0,5.933,5.933A5.933,5.933,0,0,0,128.493,122.56Zm0,9.785a3.852,3.852,0,1,1,3.852-3.852A3.852,3.852,0,0,1,128.493,132.345Z" transform="translate(-116.942 -116.942)" fill="#8f8c87"/>
  <circle id="Elipse_271" data-name="Elipse 271" cx="1.386" cy="1.386" r="1.386" transform="translate(16.333 3.999)" fill="#8f8c87"/>
</svg>
