<svg id="Grupo_511" data-name="Grupo 511" xmlns="http://www.w3.org/2000/svg" width="23.106" height="23.104" viewBox="0 0 23.106 23.104">
  <g id="Grupo_510" data-name="Grupo 510">
    <path id="Caminho_333" data-name="Caminho 333" d="M21.394,0H1.706A1.686,1.686,0,0,0,0,1.665V21.437A1.688,1.688,0,0,0,1.706,23.1H21.4a1.692,1.692,0,0,0,1.71-1.667V1.665A1.692,1.692,0,0,0,21.394,0ZM6.853,19.688H3.426V8.663H6.853ZM5.139,7.154A1.987,1.987,0,1,1,7.125,5.166,1.987,1.987,0,0,1,5.139,7.154ZM19.688,19.688H16.265V14.326c0-1.279-.024-2.923-1.781-2.923-1.783,0-2.057,1.393-2.057,2.83v5.455H9V8.663h3.286v1.507h.047a3.6,3.6,0,0,1,3.243-1.781c3.47,0,4.111,2.283,4.111,5.253Z" fill="#8f8c87"/>
  </g>
</svg>
