<svg xmlns="http://www.w3.org/2000/svg" width="24.106" height="24.106" viewBox="0 0 24.106 24.106">
  <path id="Caminho_331" data-name="Caminho 331" d="M23.106,11.553a10.62,10.62,0,0,0-.211-2.189A11.55,11.55,0,0,0,.646,7.75l-.019.044A10.182,10.182,0,0,0,0,11.553a10.748,10.748,0,0,0,.674,3.893l.012.03a11.553,11.553,0,0,0,21.736-.008A9.244,9.244,0,0,0,23.106,11.553ZM11.553,22.139c-1.954,0-3.683-2.674-4.444-6.4H16C15.236,19.466,13.508,22.139,11.553,22.139ZM6.936,14.775a21.722,21.722,0,0,1-.021-6.3H16.19a21.532,21.532,0,0,1,.22,3.082,21.555,21.555,0,0,1-.24,3.22ZM.967,11.553a10.523,10.523,0,0,1,.46-3.082H5.934a23.467,23.467,0,0,0,.019,6.3H1.469A10.519,10.519,0,0,1,.967,11.553ZM11.553.967c1.979,0,3.727,2.74,4.473,6.537H7.08C7.827,3.706,9.574.967,11.553.967Zm5.62,7.5h4.44a5.459,5.459,0,0,1,.338,1.1,10.549,10.549,0,0,1-.315,5.2H17.154a23.11,23.11,0,0,0,.222-3.22A23.224,23.224,0,0,0,17.173,8.471ZM21.333,7.5H17.022a12.227,12.227,0,0,0-2.712-6.171A10.634,10.634,0,0,1,21.333,7.5ZM8.8,1.333A12.227,12.227,0,0,0,6.086,7.5H1.773A10.633,10.633,0,0,1,8.8,1.333ZM1.833,15.741h4.28A12.11,12.11,0,0,0,8.8,21.775,10.632,10.632,0,0,1,1.833,15.741Zm12.477,6.032A12.122,12.122,0,0,0,17,15.74h4.28A10.631,10.631,0,0,1,14.309,21.773Z" transform="translate(0.5 0.5)" fill="#8f8c87" stroke="#8f8c87" stroke-width="1"/>
</svg>
